<?xml version="1.0" encoding="utf-8"?>
<!-- Generator: Adobe Illustrator 21.0.0, SVG Export Plug-In . SVG Version: 6.00 Build 0)  -->
<svg version="1.1" xmlns="http://www.w3.org/2000/svg" xmlns:xlink="http://www.w3.org/1999/xlink" x="0px" y="0px"
	 viewBox="0 0 62.4 62.4" style="enable-background:new 0 0 62.4 62.4;" xml:space="preserve">
<path class="st0" d="M31.7,18.5c1.1,0,2.2,0.1,3.2,0.3c1,0.2,1.8,0.6,2.5,1.1s1.2,1.2,1.6,2c0.4,0.8,0.6,1.9,0.6,3.1
	c0,1.4-0.3,2.6-1,3.6c-0.7,1-1.7,1.7-3.1,2v0.1c1.6,0.2,2.8,0.8,3.7,1.8s1.4,2.4,1.4,4.1c0,1-0.1,2-0.4,2.9
	c-0.3,0.9-0.8,1.7-1.5,2.4c-0.7,0.7-1.6,1.2-2.7,1.6c-1.1,0.4-2.5,0.6-4.1,0.6h-9.4V18.5H31.7z M29.5,28.9c1.6,0,2.7-0.3,3.4-0.8
	c0.7-0.5,1.1-1.4,1.1-2.6c0-1.2-0.3-2.1-1-2.6c-0.6-0.5-1.7-0.8-3.1-0.8h-2v6.7H29.5z M30.1,40.2c1.3,0,2.4-0.3,3.3-0.8
	c0.8-0.5,1.2-1.6,1.2-3c0-0.7-0.1-1.4-0.3-1.8c-0.2-0.5-0.5-0.9-0.9-1.2C33,33,32.6,32.8,32,32.7c-0.5-0.1-1.1-0.2-1.7-0.2h-2.4v7.7
	H30.1z"/>
</svg>
