<?xml version="1.0" encoding="utf-8"?>
<!-- Generator: Adobe Illustrator 21.1.0, SVG Export Plug-In . SVG Version: 6.00 Build 0)  -->
<svg version="1.1" id="Layer_1" xmlns="http://www.w3.org/2000/svg" xmlns:xlink="http://www.w3.org/1999/xlink" x="0px" y="0px"
	 viewBox="0 0 45.5 12.6" style="enable-background:new 0 0 45.5 12.6;" xml:space="preserve">
<style type="text/css">
	.st0{enable-background:new    ;}
	.st1{fill:#D9D4AB;}
</style>
<title>Asset 5consult</title>
<g class="st0">
	<path class="st1" d="M6.3,9.4C6,9.6,5.2,9.8,4.3,9.8c-2.2,0-3.9-1.4-3.9-3.9c0-2.4,1.7-4.1,4.1-4.1c1,0,1.6,0.2,1.9,0.3L6.1,2.9
		C5.7,2.8,5.2,2.6,4.5,2.6c-1.8,0-3,1.2-3,3.2c0,1.9,1.1,3.1,3,3.1c0.6,0,1.2-0.1,1.6-0.3L6.3,9.4z"/>
</g>
<g class="st0">
	<path class="st1" d="M14,5.7c0,2.7-1.6,4.1-3.6,4.1c-2.1,0-3.5-1.6-3.5-4c0-2.5,1.5-4.1,3.6-4.1C12.7,1.8,14,3.4,14,5.7z M8,5.8
		C8,7.5,8.9,9,10.5,9C12.1,9,13,7.5,13,5.8c0-1.6-0.8-3.2-2.5-3.2C8.8,2.6,8,4.1,8,5.8z"/>
	<path class="st1" d="M15.3,9.7V1.9h1.1l2.5,3.9c0.6,0.9,1,1.7,1.4,2.5l0,0c-0.1-1-0.1-2-0.1-3.2V1.9h0.9v7.8h-1l-2.5-4
		c-0.5-0.9-1.1-1.8-1.5-2.6l0,0c0.1,1,0.1,1.9,0.1,3.2v3.3H15.3z"/>
	<path class="st1" d="M22.8,8.5C23.3,8.8,23.9,9,24.6,9c1,0,1.6-0.5,1.6-1.3c0-0.7-0.4-1.1-1.5-1.6c-1.3-0.5-2.1-1.1-2.1-2.2
		c0-1.2,1-2.1,2.5-2.1c0.8,0,1.4,0.2,1.7,0.4L26.7,3c-0.3-0.1-0.8-0.4-1.5-0.4c-1.1,0-1.5,0.6-1.5,1.2c0,0.7,0.5,1.1,1.6,1.5
		c1.3,0.5,2,1.1,2,2.3c0,1.2-0.9,2.2-2.7,2.2c-0.8,0-1.6-0.2-2-0.5L22.8,8.5z"/>
	<path class="st1" d="M29.7,1.9v4.6c0,1.7,0.8,2.5,1.8,2.5c1.2,0,1.9-0.8,1.9-2.5V1.9h1v4.6c0,2.4-1.3,3.4-3,3.4
		c-1.6,0-2.8-0.9-2.8-3.3V1.9H29.7z"/>
</g>
<g class="st0">
	<path class="st1" d="M36.2,1.9h1v7h3.3v0.8h-4.3V1.9z"/>
</g>
<g class="st0">
	<path class="st1" d="M42.1,2.8h-2.4V1.9h5.8v0.9h-2.4v6.9h-1V2.8z"/>
</g>
</svg>
