<?xml version="1.0" encoding="utf-8"?>
<!-- Generator: Adobe Illustrator 22.0.1, SVG Export Plug-In . SVG Version: 6.00 Build 0)  -->
<svg version="1.1" id="Layer_1" xmlns="http://www.w3.org/2000/svg" xmlns:xlink="http://www.w3.org/1999/xlink" x="0px" y="0px"
	 viewBox="0 0 2104 630.6" style="enable-background:new 0 0 2104 630.6;" xml:space="preserve">
<style type="text/css">
	.st0{fill:#2E5766;}
	.st1{clip-path:url(#SVGID_2_);}
	.st2{clip-path:url(#SVGID_4_);fill:#FFFFFF;}
	.st3{clip-path:url(#SVGID_4_);}
	.st4{opacity:0.5;clip-path:url(#SVGID_6_);}
	.st5{clip-path:url(#SVGID_8_);fill:#2E5766;}
	.st6{clip-path:url(#SVGID_4_);fill:#2E5766;}
	.st7{opacity:0.5;clip-path:url(#SVGID_10_);}
	.st8{clip-path:url(#SVGID_12_);fill:#2E5766;}
	.st9{opacity:0.5;clip-path:url(#SVGID_14_);}
	.st10{clip-path:url(#SVGID_16_);fill:#2E5766;}
</style>
<g>
	<g>
		<path class="st0" d="M868.3,243.4h0.4l44-114.5h32.4v149h-20.8V153.3h-0.4l-49.5,124.6h-13.3l-49.2-124.6h-0.4v124.6h-20.2v-149
			h32.4L868.3,243.4z"/>
		<path class="st0" d="M987.4,277.9h-23.1l64.6-149h18.9l64,149h-23.6l-15.2-36.6h-70.7L987.4,277.9z M1009.7,223h55.8l-27.8-69.9
			L1009.7,223z"/>
		<path class="st0" d="M1151.8,277.9h-20.8v-149h47.8c7.2,0,14,0.7,20.4,2.2c6.5,1.5,12.1,3.8,16.9,7c4.8,3.2,8.7,7.5,11.5,12.7
			c2.8,5.3,4.2,11.7,4.2,19.3c0,10.9-3.4,19.8-10.1,26.5c-6.7,6.7-15.4,11-26.1,12.8l41.7,68.4h-25.3l-37.9-66.3h-22.3V277.9z
			 M1151.8,194.1h24c4.9,0,9.5-0.4,13.7-1.3s7.9-2.2,11-4.1c3.2-1.9,5.6-4.3,7.5-7.4c1.8-3,2.7-6.8,2.7-11.3c0-4.5-0.9-8.2-2.7-11.3
			c-1.8-3-4.2-5.4-7.3-7.3c-3-1.8-6.6-3.1-10.6-3.9c-4.1-0.8-8.3-1.2-12.8-1.2h-25.5V194.1z"/>
		<path class="st0" d="M1309.8,277.9H1289V147.2h-47.8v-18.3h116.4v18.3h-47.8V277.9z"/>
		<path class="st0" d="M1398.2,277.9h-20.8v-149h20.8V277.9z"/>
		<path class="st0" d="M919,474.7c-5.9,8-13.5,14.5-22.9,19.5c-9.4,5-20.7,7.5-33.9,7.5c-11.4,0-21.9-1.9-31.5-5.8
			c-9.6-3.9-17.9-9.3-24.8-16.2c-6.9-6.9-12.4-15.2-16.3-24.8c-3.9-9.6-5.9-20.2-5.9-31.7c0-11.6,2-22.3,6-31.9
			c4-9.6,9.5-17.8,16.6-24.6c7.1-6.8,15.5-12.1,25.1-15.9c9.7-3.8,20.2-5.7,31.6-5.7c5.1,0,10.2,0.5,15.4,1.5
			c5.2,1,10.2,2.5,14.9,4.4c4.8,2,9.1,4.4,13,7.3c3.9,2.9,7.3,6.2,10.1,10l-16.4,12.6c-3.6-5.1-8.8-9.2-15.5-12.5
			c-6.7-3.3-13.9-4.9-21.6-4.9c-8.7,0-16.5,1.6-23.5,4.7c-6.9,3.2-12.9,7.5-17.8,12.9c-4.9,5.5-8.7,11.8-11.4,19
			c-2.7,7.2-4,14.9-4,23c0,8.4,1.3,16.3,3.9,23.6c2.6,7.3,6.3,13.6,11.2,19c4.8,5.4,10.7,9.6,17.7,12.7c6.9,3.1,14.7,4.6,23.3,4.6
			c8.4,0,16.1-1.7,22.9-5.1c6.9-3.4,12.6-8.3,17-14.7L919,474.7z"/>
		<path class="st0" d="M1088,423.2c0,11.5-2,22.1-6,31.7c-4,9.6-9.5,17.9-16.5,24.8c-7,6.9-15.4,12.3-25,16.2
			c-9.7,3.9-20.2,5.8-31.6,5.8c-11.4,0-21.9-1.9-31.5-5.8c-9.6-3.9-17.9-9.3-24.9-16.2c-7-6.9-12.5-15.2-16.4-24.8
			c-3.9-9.6-5.9-20.2-5.9-31.7c0-11.6,2-22.3,5.9-31.9c3.9-9.6,9.4-17.8,16.4-24.6c7-6.8,15.3-12.1,24.9-15.9
			c9.6-3.8,20.1-5.7,31.5-5.7c11.4,0,21.9,1.9,31.6,5.7c9.7,3.8,18,9.1,25,15.9c7,6.8,12.5,15,16.5,24.6
			C1086,400.9,1088,411.5,1088,423.2z M1065.5,423.2c0-8.1-1.3-15.8-4-23c-2.7-7.2-6.5-13.6-11.4-19c-4.9-5.5-10.8-9.8-17.8-12.9
			c-6.9-3.2-14.8-4.7-23.5-4.7c-8.6,0-16.3,1.6-23.3,4.7c-6.9,3.2-12.8,7.5-17.7,12.9c-4.8,5.5-8.6,11.8-11.3,19
			c-2.7,7.2-4,14.9-4,23c0,8.3,1.3,16.1,4,23.4c2.7,7.3,6.5,13.6,11.4,19c4.9,5.4,10.8,9.6,17.7,12.7c6.9,3.1,14.6,4.6,23.1,4.6
			c8.6,0,16.3-1.5,23.4-4.6c7-3.1,13-7.3,17.9-12.7c4.9-5.4,8.7-11.7,11.4-19C1064.1,439.2,1065.5,431.5,1065.5,423.2z"/>
		<path class="st0" d="M1221.4,468h0.4V348.9h20.8v149h-26.3l-78.7-121.6h-0.4v121.6h-20.8v-149h27.1L1221.4,468z"/>
		<path class="st0" d="M1352.9,376.5c-2.9-4.1-6.9-7.4-12-10c-5.1-2.6-10.7-3.9-17-3.9c-3.4,0-6.8,0.5-10.2,1.4
			c-3.4,0.9-6.6,2.4-9.4,4.4c-2.8,2-5.1,4.6-6.8,7.6c-1.8,3-2.6,6.6-2.6,10.8c0,4.1,0.8,7.5,2.4,10.2c1.6,2.7,3.8,5.1,6.5,6.9
			c2.7,1.9,6,3.5,9.7,4.8c3.7,1.3,7.7,2.7,11.9,4.1c5.1,1.5,10.2,3.3,15.4,5.3c5.2,2,9.9,4.6,14.1,7.8c4.2,3.2,7.6,7.3,10.3,12.1
			c2.7,4.8,4,11,4,18.4c0,7.7-1.4,14.4-4.3,20.1c-2.9,5.7-6.7,10.4-11.5,14.1c-4.8,3.7-10.3,6.5-16.5,8.3
			c-6.2,1.8-12.7,2.7-19.3,2.7c-9.4,0-18.5-1.8-27.3-5.5c-8.8-3.6-16-9-21.8-16.2l16.2-13.7c3.5,5.2,8.2,9.4,14.1,12.6
			c5.9,3.2,12.3,4.8,19.2,4.8c3.5,0,7-0.5,10.5-1.5c3.5-1,6.7-2.5,9.6-4.6c2.9-2.1,5.2-4.7,7.1-7.9c1.8-3.2,2.7-7,2.7-11.5
			c0-4.5-0.9-8.2-2.8-11.3c-1.9-3-4.5-5.6-7.7-7.7c-3.2-2.1-7-3.9-11.3-5.4c-4.3-1.5-8.8-3-13.6-4.5c-4.8-1.4-9.5-3.1-14.1-5.2
			c-4.6-2-8.8-4.6-12.4-7.8c-3.7-3.2-6.6-7-8.8-11.7c-2.2-4.6-3.4-10.4-3.4-17.3c0-7.4,1.5-13.8,4.5-19.2c3-5.3,6.9-9.8,11.8-13.3
			c4.8-3.5,10.3-6.1,16.4-7.7c6.1-1.6,12.2-2.4,18.4-2.4c8.7,0,16.8,1.5,24.4,4.6c7.6,3.1,13.7,7.2,18.3,12.4L1352.9,376.5z"/>
		<path class="st0" d="M1455.4,501.7c-9.8,0-18.4-1.7-25.7-4.9c-7.3-3.3-13.3-7.7-18.1-13.2c-4.8-5.5-8.3-11.7-10.6-18.8
			c-2.3-7.1-3.5-14.4-3.5-22v-93.9h20.8v92.6c0,5.1,0.6,10.1,1.9,15c1.3,5,3.3,9.4,6.2,13.4c2.9,3.9,6.7,7.1,11.4,9.5
			c4.7,2.4,10.6,3.6,17.6,3.6c6.9,0,12.7-1.2,17.5-3.6c4.8-2.4,8.6-5.5,11.5-9.5c2.9-3.9,4.9-8.4,6.2-13.4c1.3-5,1.9-10,1.9-15
			v-92.6h20.8v93.9c0,7.6-1.2,14.9-3.5,22c-2.3,7.1-5.9,13.4-10.6,18.8c-4.8,5.5-10.8,9.9-18.1,13.2
			C1473.8,500,1465.2,501.7,1455.4,501.7z"/>
		<path class="st0" d="M1569.3,479.4h66.5v18.5h-87.3v-149h20.8V479.4z"/>
		<path class="st0" d="M1689,497.9h-20.8V367.2h-47.8v-18.3h116.4v18.3H1689V497.9z"/>
		<path class="st0" d="M1777.4,497.9h-20.8v-149h20.8V497.9z"/>
		<path class="st0" d="M1918.6,468h0.4V348.9h20.8v149h-26.3l-78.7-121.6h-0.4v121.6h-20.8v-149h27.1L1918.6,468z"/>
		<path class="st0" d="M2088.5,379.6c-4.5-4.9-10.2-8.8-17.2-11.8c-6.9-2.9-14.7-4.4-23.3-4.4c-8.7,0-16.6,1.6-23.6,4.7
			c-7,3.2-13,7.5-17.9,12.9c-4.9,5.5-8.7,11.8-11.4,19c-2.7,7.2-4,14.9-4,23c0,8.3,1.3,16.1,4,23.4c2.7,7.3,6.5,13.6,11.4,19
			c4.9,5.4,10.9,9.6,18.1,12.7c7.2,3.1,15.2,4.6,24,4.6c7,0,13.5-0.6,19.4-1.9s11-3.1,15.4-5.5v-41.5h-33v-17.7h53.7v72.2
			c-7.9,4.2-16.4,7.4-25.7,9.7s-19.4,3.4-30.3,3.4c-11.6,0-22.3-1.9-32.1-5.8c-9.8-3.9-18.1-9.3-25.1-16.2
			c-7-6.9-12.5-15.2-16.4-24.8c-3.9-9.6-5.9-20.2-5.9-31.7c0-11.6,2-22.3,6-31.9c4-9.6,9.5-17.8,16.6-24.6
			c7.1-6.8,15.5-12.1,25.1-15.9c9.7-3.8,20.2-5.7,31.6-5.7c11.9,0,22.6,1.8,31.9,5.3c9.3,3.5,17.1,8.2,23.3,14.1L2088.5,379.6z"/>
	</g>
	<g id="Marti_Consulting_3_">
		<g>
			<defs>
				<rect id="SVGID_1_" width="630.4" height="630.6"/>
			</defs>
			<clipPath id="SVGID_2_">
				<use xlink:href="#SVGID_1_"  style="overflow:visible;"/>
			</clipPath>
			<g class="st1">
				<defs>
					<rect id="SVGID_3_" width="630.4" height="630.6"/>
				</defs>
				<clipPath id="SVGID_4_">
					<use xlink:href="#SVGID_3_"  style="overflow:visible;"/>
				</clipPath>
				<rect x="0" y="0.2" class="st2" width="630.3" height="630.3"/>
				<rect x="0" y="0" class="st2" width="630.3" height="630.3"/>
				<g class="st3">
					<defs>
						<rect id="SVGID_5_" x="0" y="0" width="630.3" height="630.6"/>
					</defs>
					<clipPath id="SVGID_6_">
						<use xlink:href="#SVGID_5_"  style="overflow:visible;"/>
					</clipPath>
					<g class="st4">
						<g>
							<defs>
								<rect id="SVGID_7_" x="86.6" y="86.7" width="152.4" height="152.4"/>
							</defs>
							<clipPath id="SVGID_8_">
								<use xlink:href="#SVGID_7_"  style="overflow:visible;"/>
							</clipPath>
							<rect x="86.6" y="86.7" class="st5" width="152.4" height="152.4"/>
						</g>
					</g>
				</g>
				<rect x="239" y="86.7" class="st6" width="152.4" height="152.4"/>
				<g class="st3">
					<defs>
						<rect id="SVGID_9_" x="0" y="0" width="630.3" height="630.6"/>
					</defs>
					<clipPath id="SVGID_10_">
						<use xlink:href="#SVGID_9_"  style="overflow:visible;"/>
					</clipPath>
					<g class="st7">
						<g>
							<defs>
								<rect id="SVGID_11_" x="239" y="239.1" width="152.4" height="152.4"/>
							</defs>
							<clipPath id="SVGID_12_">
								<use xlink:href="#SVGID_11_"  style="overflow:visible;"/>
							</clipPath>
							<rect x="239" y="239.1" class="st8" width="152.4" height="152.4"/>
						</g>
					</g>
				</g>
				<rect x="391.4" y="239.1" class="st6" width="152.4" height="152.4"/>
				<g class="st3">
					<defs>
						<rect id="SVGID_13_" x="0" y="0" width="630.3" height="630.6"/>
					</defs>
					<clipPath id="SVGID_14_">
						<use xlink:href="#SVGID_13_"  style="overflow:visible;"/>
					</clipPath>
					<g class="st9">
						<g>
							<defs>
								<rect id="SVGID_15_" x="391.4" y="391.5" width="152.4" height="152.4"/>
							</defs>
							<clipPath id="SVGID_16_">
								<use xlink:href="#SVGID_15_"  style="overflow:visible;"/>
							</clipPath>
							<rect x="391.4" y="391.5" class="st10" width="152.4" height="152.4"/>
						</g>
					</g>
				</g>
			</g>
		</g>
	</g>
</g>
</svg>
