<?xml version="1.0" encoding="utf-8"?>
<!-- Generator: Adobe Illustrator 21.1.0, SVG Export Plug-In . SVG Version: 6.00 Build 0)  -->
<svg version="1.1" id="Layer_1" xmlns="http://www.w3.org/2000/svg" xmlns:xlink="http://www.w3.org/1999/xlink" x="0px" y="0px"
	 viewBox="0 0 45.7 18.5" style="enable-background:new 0 0 45.7 18.5;" xml:space="preserve">
<style type="text/css">
	.st0{enable-background:new    ;}
	.st1{fill:#2D5666;}
</style>
<title>Asset 4consult</title>
<g class="st0">
	<path class="st1" d="M10.9,9.2c-0.1-1.6-0.2-3.5-0.2-4.9h-0.1C10.3,5.6,9.9,7,9.3,8.6l-2,5.6H6.1L4.3,8.7C3.7,7.1,3.3,5.6,3,4.3h0
		c0,1.4-0.1,3.3-0.2,5.1l-0.3,4.9H1L1.8,2.8h1.9l2,5.5c0.5,1.4,0.9,2.7,1.2,3.9h0.1C7.1,11,7.5,9.8,8,8.3l2-5.5H12l0.7,11.4h-1.4
		L10.9,9.2z"/>
</g>
<g class="st0">
	<path class="st1" d="M16.6,10.6l-1.2,3.6h-1.5l3.9-11.4h1.8l3.9,11.4h-1.6l-1.2-3.6H16.6z M20.4,9.5l-1.1-3.3
		c-0.3-0.7-0.4-1.4-0.6-2.1h0c-0.2,0.7-0.4,1.4-0.6,2.1l-1.1,3.3H20.4z"/>
</g>
<g class="st0">
	<path class="st1" d="M25.2,2.9C25.9,2.8,27,2.7,28,2.7c1.6,0,2.6,0.3,3.3,0.9c0.6,0.5,0.9,1.3,0.9,2.2c0,1.5-1,2.5-2.2,2.9v0.1
		c0.9,0.3,1.4,1.1,1.7,2.3c0.4,1.6,0.6,2.7,0.9,3.1h-1.5c-0.2-0.3-0.4-1.3-0.8-2.7c-0.3-1.6-1-2.2-2.3-2.2h-1.4v5h-1.5V2.9z
		 M26.6,8.1h1.5c1.6,0,2.6-0.9,2.6-2.2c0-1.5-1.1-2.1-2.6-2.1c-0.7,0-1.2,0.1-1.5,0.1V8.1z"/>
</g>
<g class="st0">
	<path class="st1" d="M36.6,4h-3.5V2.8h8.5V4h-3.5v10.2h-1.5V4z"/>
	<path class="st1" d="M44.4,2.8v11.4h-1.5V2.8H44.4z"/>
</g>
</svg>
